<?xml version="1.0" encoding="UTF-8" standalone="no"?>
<!-- Created with Inkscape (http://www.inkscape.org/) -->

<svg
   xmlns:dc="http://purl.org/dc/elements/1.1/"
   xmlns:cc="http://creativecommons.org/ns#"
   xmlns:rdf="http://www.w3.org/1999/02/22-rdf-syntax-ns#"
   xmlns:svg="http://www.w3.org/2000/svg"
   xmlns="http://www.w3.org/2000/svg"
   xmlns:sodipodi="http://sodipodi.sourceforge.net/DTD/sodipodi-0.dtd"
   xmlns:inkscape="http://www.inkscape.org/namespaces/inkscape"
   version="1.1"
   id="svg2"
   xml:space="preserve"
   width="666.66669"
   height="666.66669"
   viewBox="0 0 666.66669 666.66669"
   sodipodi:docname="Logo2.svg"
   inkscape:export-filename="logo.png"
   inkscape:export-xdpi="96"
   inkscape:export-ydpi="96"
   inkscape:version="0.92.4 (5da689c313, 2019-01-14)"><metadata
     id="metadata8"><rdf:RDF><cc:Work
         rdf:about=""><dc:format>image/svg+xml</dc:format><dc:type
           rdf:resource="http://purl.org/dc/dcmitype/StillImage" /><dc:title /></cc:Work></rdf:RDF></metadata><defs
     id="defs6"><radialGradient
       fx="0"
       fy="0"
       cx="0"
       cy="0"
       r="1"
       gradientUnits="userSpaceOnUse"
       gradientTransform="matrix(471.01001,0,0,-471.01001,250,250)"
       spreadMethod="pad"
       id="radialGradient30"><stop
         style="stop-opacity:1;stop-color:#ffffff"
         offset="0"
         id="stop24" /><stop
         style="stop-opacity:1;stop-color:#ffffff"
         offset="0.52552892"
         id="stop26" /><stop
         style="stop-opacity:1;stop-color:#a5a4a4"
         offset="1"
         id="stop28" /></radialGradient><clipPath
       clipPathUnits="userSpaceOnUse"
       id="clipPath40"><path
         d="M 0,500 H 500 V 0 H 0 Z"
         id="path38"
         inkscape:connector-curvature="0" /></clipPath><clipPath
       clipPathUnits="userSpaceOnUse"
       id="clipPath132"><path
         d="M 0,500 H 500 V 0 H 0 Z"
         id="path130"
         inkscape:connector-curvature="0" /></clipPath><clipPath
       clipPathUnits="userSpaceOnUse"
       id="clipPath148"><path
         d="M 0,500 H 500 V 0 H 0 Z"
         id="path146"
         inkscape:connector-curvature="0" /></clipPath></defs><sodipodi:namedview
     pagecolor="#ffffff"
     bordercolor="#666666"
     borderopacity="1"
     objecttolerance="10"
     gridtolerance="10"
     guidetolerance="10"
     inkscape:pageopacity="0"
     inkscape:pageshadow="2"
     inkscape:window-width="1600"
     inkscape:window-height="837"
     id="namedview4"
     showgrid="false"
     inkscape:zoom="0.25031579"
     inkscape:cx="-73.735172"
     inkscape:cy="1032.837"
     inkscape:window-x="-8"
     inkscape:window-y="-8"
     inkscape:window-maximized="1"
     inkscape:current-layer="g10" /><g
     id="g10"
     inkscape:groupmode="layer"
     inkscape:label="130750-OSX908-212"
     transform="matrix(1.3333333,0,0,-1.3333333,0,666.66667)"><g
   id="g62"
   transform="matrix(3.9506463,0,0,3.9506463,420.52768,320.84627)"
   style="fill:#ffffff;fill-opacity:1"><path
     d="m 0,0 v -4.322 -24.325 l -21.067,-12.162 -21.066,-12.163 -21.067,12.163 -3.743,2.161 z"
     style="fill:#ffffff;fill-opacity:1;fill-rule:evenodd;stroke:none"
     id="path64"
     inkscape:connector-curvature="0" /></g><g
   id="g66"
   transform="matrix(3.9506463,0,0,3.9506463,351.61498,167.8883)"
   style="fill:#ffffff;fill-opacity:1"><path
     d="M 0,0 -3.624,-2.092 -24.69,-14.254 -45.756,-2.092 -66.822,10.07 v 24.326 4.184 z"
     style="fill:#ffffff;fill-opacity:1;fill-rule:evenodd;stroke:none"
     id="path68"
     inkscape:connector-curvature="0" /></g><g
   id="g70"
   transform="matrix(3.9506463,0,0,3.9506463,87.623696,15.155521)"
   style="fill:#ffffff;fill-opacity:1"><path
     d="m 0,0 v 73.056 24.325 l 21.066,12.162 3.777,2.181 -0.001,-97.382 z"
     style="fill:#ffffff;fill-opacity:1;fill-rule:evenodd;stroke:none"
     id="path72"
     inkscape:connector-curvature="0" /></g><g
   id="g74"
   transform="matrix(3.9506463,0,0,3.9506463,254.07391,495.97131)"
   style="fill:#ffffff"><path
     d="m 0,0 21.066,-12.162 3.716,-2.146 -66.914,-38.632 v 4.29 24.326 l 21.066,12.162 z"
     style="fill:#ffffff;fill-opacity:1;fill-rule:evenodd;stroke:none"
     id="path76"
     inkscape:connector-curvature="0" /></g><g
   id="g78"
   transform="matrix(3.9506463,0,0,3.9506463,254.07391,495.97131)"
   style="fill:#ffffff"><path
     d="m 0,0 21.066,-12.162 21.067,-12.162 v -20.004 l -7.439,-4.295 -59.455,34.327 3.695,2.134 z"
     style="fill:#ffffff;fill-opacity:1;fill-rule:evenodd;stroke:none"
     id="path80"
     inkscape:connector-curvature="0" /></g><g
   id="g82"
   transform="matrix(3.9506463,0,0,3.9506463,322.62157,456.39729)"
   style="fill:#ffffff"><path
     d="M 0,0 3.715,-2.145 24.782,-14.307 V -34.311 L 0,-48.617 Z"
     style="fill:#ffffff;fill-opacity:1;fill-rule:evenodd;stroke:none"
     id="path84"
     inkscape:connector-curvature="0" /></g>

</g></svg>